<svg xmlns="http://www.w3.org/2000/svg" width="32" height="32" viewBox="0 0 32 32">
  <defs>
    <linearGradient id="grad1" x1="0%" y1="0%" x2="100%" y2="100%">
      <stop offset="0%" style="stop-color:#2b6cee"/>
      <stop offset="100%" style="stop-color:#60a5fa"/>
    </linearGradient>
  </defs>
  <rect width="30" height="30" x="1" y="1" rx="7" fill="url(#grad1)"/>
  <path d="M16 8v3l4-4-4-4v3a8 8 0 0 0-8 8c0 1.25.3 2.45.8 3.5l2.2-2.2a5.5 5.5 0 0 1-.5-1.3c0-3.05 2.45-5.5 5.5-5.5zM24 16c0-1.25-.3-2.45-.8-3.5L21 14.7c.3.4.5.85.5 1.3 0 3.05-2.45 5.5-5.5 5.5v-3l-4 4 4 4v-3a8 8 0 0 0 8-8z" fill="white"/>
</svg>
